<svg width="13" height="13" viewBox="0 0 13 13" fill="none" xmlns="http://www.w3.org/2000/svg">
<path d="M6.50008 2.1665C7.07472 2.1665 7.62582 2.39478 8.03215 2.80111C8.43847 3.20743 8.66675 3.75853 8.66675 4.33317C8.66675 4.90781 8.43847 5.45891 8.03215 5.86523C7.62582 6.27156 7.07472 6.49984 6.50008 6.49984C5.92545 6.49984 5.37435 6.27156 4.96802 5.86523C4.56169 5.45891 4.33341 4.90781 4.33341 4.33317C4.33341 3.75853 4.56169 3.20743 4.96802 2.80111C5.37435 2.39478 5.92545 2.1665 6.50008 2.1665ZM6.50008 7.58317C8.89425 7.58317 10.8334 8.55275 10.8334 9.74984V10.8332H2.16675V9.74984C2.16675 8.55275 4.10591 7.58317 6.50008 7.58317Z" fill="#D3932B"/>
</svg>
