<svg width="13" height="13" viewBox="0 0 13 13" fill="none" xmlns="http://www.w3.org/2000/svg">
<path d="M11.9167 9.20817V8.93734C11.9167 8.57819 11.7741 8.23375 11.5201 7.9798C11.2662 7.72584 10.9217 7.58317 10.5626 7.58317C10.2034 7.58317 9.859 7.72584 9.60504 7.9798C9.35108 8.23375 9.20841 8.57819 9.20841 8.93734V9.20817C8.9105 9.20817 8.66675 9.45192 8.66675 9.74984V11.9165C8.66675 12.2144 8.9105 12.4582 9.20841 12.4582H11.9167C12.2147 12.4582 12.4584 12.2144 12.4584 11.9165V9.74984C12.4584 9.45192 12.2147 9.20817 11.9167 9.20817ZM11.3751 9.20817H9.75008V8.93734C9.75008 8.48775 10.113 8.12484 10.5626 8.12484C11.0122 8.12484 11.3751 8.48775 11.3751 8.93734V9.20817ZM4.33341 4.33317C4.33341 3.13609 5.303 2.1665 6.50008 2.1665C7.69716 2.1665 8.66675 3.13609 8.66675 4.33317C8.66675 5.53025 7.69716 6.49984 6.50008 6.49984C5.303 6.49984 4.33341 5.53025 4.33341 4.33317ZM7.58341 10.8332H2.16675V9.74984C2.16675 8.55275 4.10591 7.58317 6.50008 7.58317C7.188 7.58317 7.83258 7.66442 8.41216 7.80525C8.29841 8.02734 8.20633 8.26025 8.163 8.50942C7.81091 8.80734 7.58341 9.2515 7.58341 9.74984V10.8332Z" fill="#BA8E48" fill-opacity="0.5"/>
</svg>
